<?xml version="1.0" encoding="utf-8"?>
<!-- Generator: Adobe Illustrator 27.6.1, SVG Export Plug-In . SVG Version: 6.00 Build 0)  -->
<svg version="1.1" id="Gruppe_41" xmlns="http://www.w3.org/2000/svg" xmlns:xlink="http://www.w3.org/1999/xlink" x="0px" y="0px"
	 viewBox="0 0 250 45.7" style="enable-background:new 0 0 250 45.7;" xml:space="preserve">
<style type="text/css">
	.st0{fill:#181716;}
	.st1{fill:#FFFFFF;}
	.st2{fill:#868786;}
	.st3{fill:#009AA3;}
</style>
<g id="Gruppe_13" transform="translate(49.862 1.587)">
	<path id="Pfad_27" class="st0" d="M195.7,3.4V2.2h0.9c0.4,0,0.9,0.1,0.9,0.6c0,0.6-0.4,0.6-0.9,0.6L195.7,3.4z M195,5.9h0.7V4h0.6
		l1.1,1.8h0.8L197,4c0.7-0.1,1.1-0.4,1.1-1.1c0-0.9-0.6-1.2-1.6-1.2H195V5.9z M193.4,3.7c0-1.7,1.4-3,3-3s3,1.4,3,3c0,1.7-1.4,3-3,3
		c0,0,0,0,0,0C194.7,6.8,193.4,5.4,193.4,3.7C193.4,3.7,193.4,3.7,193.4,3.7 M192.6,3.7c0,2.1,1.7,3.7,3.7,3.7s3.7-1.7,3.7-3.7
		S198.5,0,196.4,0c0,0,0,0,0,0C194.3,0,192.7,1.7,192.6,3.7 M182.9,6.7l3.8,7.6h-7.5L182.9,6.7z M168.7,22.2h6.6l1.7-3.6h11.9
		l1.8,3.6h6.5L186.7,2.1h-7.6L168.7,22.2z M141.3,15.1c0,5.9,3.1,7.3,8.4,7.3h7.1c6.6,0,9.5-0.3,9.5-6.1v-5.7h-13.2v4.2h7.3v0.6
		c0,1.9-1.5,2.2-3.1,2.2h-6.3c-3,0-3.7-0.8-3.7-4.2v-2.5c0-3.4,0.8-4.2,3.7-4.2h6.4c1.9,0,3,0.3,3,2.2h5.8V8.3
		c0-3.9-0.9-6.4-7.6-6.4h-8.8c-5.3,0-8.4,1.4-8.4,7.3L141.3,15.1z M115.1,22.2h21.3v-4.8h-15.4v-3.2h14.3V10h-14.3V6.7H136V2.1
		h-20.9V22.2z M86.4,22.2h5.9V17h9.2c1.8,0,2.4,0.7,2.4,2.8v2.4h5.9v-3.4c0-3.3-1.5-4.1-3.2-4.4v-0.1c2.7-0.7,3.3-2.2,3.3-4.9V8
		c0-3.6-1.2-6-5.7-6H86.4L86.4,22.2z M92.3,7.1h9.2c1.9,0,2.7,0.3,2.7,2.1v0.7c0,1.4-0.6,2.1-2.2,2.1h-9.7L92.3,7.1z M58.7,7.1H67
		v15.1h5.9V7.1h8.3v-5H58.7L58.7,7.1z M35,11c0-2.5,0.6-4,3.7-4h6.9c3.1,0,3.7,1.5,3.7,4v2.2c0,2.9-0.6,4-3.4,4h-7.5
		c-2.8,0-3.4-1.1-3.4-4L35,11z M29,15.1c0,5.9,3.1,7.3,8.4,7.3h9.4c5.3,0,8.4-1.4,8.4-7.3v-6c0-5.9-3.1-7.3-8.4-7.3h-9.4
		c-5.3,0-8.4,1.4-8.4,7.3V15.1z M0,22.2h5.9v-7.6h12.4v7.6h5.9V2.1h-5.9v7.2H5.9V2.1H0L0,22.2z"/>
</g>
<path id="Pfad_28" class="st1" d="M17.5,29.4"/>
<g id="Gruppe_14" transform="translate(49.862 34.061)">
	<path id="Pfad_29" class="st2" d="M2.3,7.2c-0.3,0-0.6,0-0.9,0v4.3H0V0.2c0.8,0,1.7-0.1,2.6-0.1c2.4,0,3.8,1.3,3.8,3.3
		C6.4,5.6,4.7,7.2,2.3,7.2z M2.5,1.4c-0.4,0-0.7,0-1,0v4.4c0.3,0,0.6,0.1,0.9,0.1c1.3,0.1,2.4-0.8,2.6-2c0-0.1,0-0.2,0-0.3
		C4.9,2.2,4.1,1.4,2.5,1.4L2.5,1.4z"/>
	<path id="Pfad_30" class="st2" d="M22.2,11.4l-3.6-5.1h-0.1v5.1h-1.5V0.2c0.7-0.1,1.5-0.1,2.7-0.1c2.1,0,3.6,0.8,3.6,2.9
		c0,1.7-1.4,3.2-3.1,3.2c0,0-0.1,0-0.1,0C20.4,6.6,20.8,7,21,7.4l3,4L22.2,11.4z M19.5,1.4c-0.4,0-0.7,0-1,0v3.8c0.2,0,0.5,0,0.9,0
		c1.5,0,2.4-0.8,2.4-2C21.9,1.9,21,1.4,19.5,1.4L19.5,1.4z"/>
	<path id="Pfad_31" class="st2" d="M38.5,11.6c-3.2,0-4.8-2.3-4.8-5.7c0-3.8,2.3-5.9,5.1-5.9c2.9,0,4.8,2,4.8,5.7
		C43.6,9.4,41.3,11.6,38.5,11.6z M38.7,1.4c-1.8,0-3.4,1.5-3.4,4.4c0,2.7,1.1,4.5,3.3,4.5c1.7,0,3.4-1.5,3.4-4.4
		C42,3,40.8,1.4,38.7,1.4L38.7,1.4z"/>
	<path id="Pfad_32" class="st2" d="M55.9,1.4v3.7h3.8v1.2h-3.8v5.1h-1.5V0.2h5.4v1.3L55.9,1.4z"/>
	<path id="Pfad_33" class="st2" d="M70.6,11.4V0.2h5.5v1.3h-4V5h3.8v1.2h-3.8v3.9h4v1.3L70.6,11.4z"/>
	<path id="Pfad_34" class="st2" d="M89.1,11.6c-0.7,0-1.4-0.1-2.1-0.3l0.1-1.5c0.7,0.3,1.4,0.4,2.2,0.4c1.3,0,2.3-0.6,2.3-1.9
		c0-2.5-4.8-1.5-4.8-5.1c0-1.9,1.4-3.2,3.8-3.2c0.6,0,1.3,0.1,1.9,0.2l-0.1,1.4c-0.6-0.2-1.3-0.3-1.9-0.3c-1.5,0-2.2,0.7-2.2,1.8
		c0,2.4,4.8,1.6,4.8,5.1C93.1,10.1,91.6,11.6,89.1,11.6z"/>
	<path id="Pfad_35" class="st2" d="M105.9,11.6c-0.7,0-1.4-0.1-2.1-0.3l0.1-1.5c0.7,0.3,1.4,0.4,2.2,0.4c1.3,0,2.3-0.6,2.3-1.9
		c0-2.5-4.8-1.5-4.8-5.1c0-1.9,1.4-3.2,3.8-3.2c0.6,0,1.3,0.1,1.9,0.2l-0.1,1.4c-0.6-0.2-1.3-0.3-1.9-0.3C105.8,1.3,105,2,105,3
		c0,2.4,4.8,1.6,4.8,5.1C109.9,10.1,108.4,11.6,105.9,11.6z"/>
	<path id="Pfad_36" class="st2" d="M120.8,11.4V0.2h1.5v11.3L120.8,11.4z"/>
	<path id="Pfad_37" class="st2" d="M137.8,11.6c-3.2,0-4.8-2.3-4.8-5.7c0-3.8,2.3-5.9,5.1-5.9c2.9,0,4.8,2,4.8,5.7
		C142.9,9.4,140.6,11.6,137.8,11.6z M138,1.4c-1.8,0-3.3,1.5-3.3,4.4c0,2.7,1.1,4.5,3.3,4.5c1.7,0,3.4-1.5,3.4-4.4
		C141.3,3,140.1,1.4,138,1.4L138,1.4z"/>
	<path id="Pfad_38" class="st2" d="M160.3,11.4l-4.1-7c-0.4-0.8-0.9-1.5-1.2-2.3c0.1,1.2,0.1,3.9,0.1,5.7v3.6h-1.4V0.2h1.9l4,6.8
		c0.5,0.8,0.9,1.7,1.3,2.5c-0.1-1.4-0.1-4.2-0.1-6V0.2h1.4v11.3L160.3,11.4z"/>
	<path id="Pfad_39" class="st2" d="M180.3,11.4l-0.9-2.6h-4.5l-0.9,2.6h-1.5l3.9-11.3h1.6l3.9,11.3H180.3z M177.6,3.6
		c-0.2-0.6-0.4-1.1-0.5-1.7h0c-0.1,0.6-0.3,1.1-0.5,1.7l-1.4,4h3.8L177.6,3.6z"/>
	<path id="Pfad_40" class="st2" d="M192.2,11.4V0.2h1.5v9.9h3.8v1.3L192.2,11.4z"/>
</g>
<path id="Pfad_41" class="st3" d="M16.7,16.8h13.8V0H0v30.5h16.7V16.8z"/>
<rect id="Rechteck_18" x="20.5" y="20.4" class="st3" width="17.5" height="17.4"/>
</svg>
